<?xml version="1.0" standalone="no"?>
<!DOCTYPE svg PUBLIC "-//W3C//DTD SVG 20010904//EN"
 "http://www.w3.org/TR/2001/REC-SVG-20010904/DTD/svg10.dtd">
<svg version="1.0" xmlns="http://www.w3.org/2000/svg"
 width="381.000000pt" height="381.000000pt" viewBox="0 0 381.000000 381.000000"
 preserveAspectRatio="xMidYMid meet">
<metadata>
Created by potrace 1.14, written by Peter Selinger 2001-2017
</metadata>
<g transform="translate(0.000000,381.000000) scale(0.100000,-0.100000)"
fill="#000000" stroke="none">
<path d="M2854 3020 c-80 -12 -195 -50 -201 -67 -8 -21 9 -29 70 -32 130 -5
238 -49 310 -124 48 -51 115 -186 133 -268 21 -102 12 -311 -19 -430 -57 -216
-199 -443 -424 -677 -65 -68 -80 -89 -70 -99 9 -9 42 12 152 98 77 61 149 118
160 127 11 10 45 37 75 62 234 192 360 334 440 495 61 124 79 207 75 350 -1
66 -5 127 -7 135 -2 8 -8 31 -12 50 -39 167 -203 326 -386 372 -62 16 -219 20
-296 8z"/>
<path d="M4 2908 c-9 -15 5 -25 52 -37 116 -29 206 -99 249 -193 54 -118 59
-185 60 -743 0 -581 -7 -713 -41 -820 -44 -134 -104 -193 -254 -251 -30 -12
-55 -28 -55 -35 0 -19 1006 -21 1012 -2 2 6 -26 26 -62 43 -170 81 -259 267
-280 585 -15 227 -21 669 -9 700 12 35 36 55 64 55 106 0 383 -318 725 -835
126 -191 148 -239 148 -324 -1 -80 -19 -125 -73 -179 -44 -46 -48 -57 -22 -70
17 -9 2068 -14 2128 -5 29 5 30 8 52 101 12 53 25 111 28 127 4 25 54 249 70
320 14 59 14 63 -6 68 -16 4 -26 -7 -55 -62 -93 -177 -221 -252 -450 -266 -43
-2 -109 -21 -235 -69 -226 -84 -380 -122 -585 -142 -243 -23 -313 -4 -513 139
-121 87 -318 254 -376 318 -55 61 -120 177 -157 280 -26 72 -31 100 -33 194
-1 91 -4 109 -16 106 -71 -17 -153 8 -240 74 -51 38 -193 177 -249 245 -95
114 -159 285 -139 375 15 71 66 161 111 197 40 34 124 78 146 78 6 0 11 8 11
18 0 16 -31 17 -501 17 -275 1 -503 -3 -505 -7z"/>
<path d="M1545 2901 c-7 -17 -11 -13 55 -44 166 -78 204 -262 99 -483 -33 -70
-35 -80 -15 -87 9 -4 41 22 83 66 104 108 227 222 328 303 102 82 281 204 300
204 17 0 50 38 41 48 -4 4 -205 7 -447 7 -371 1 -439 -2 -444 -14z"/>
</g>
</svg>
